<svg xmlns="http://www.w3.org/2000/svg" xmlns:xlink="http://www.w3.org/1999/xlink" width="237.88" height="128.298" viewBox="0 0 237.88 128.298">
  <defs>
    <clipPath id="clip-path">
      <path id="Path_8" data-name="Path 8" d="M0-247.544H237.88v-128.3H0Z" transform="translate(0 375.842)" fill="#92f1ea"/>
    </clipPath>
  </defs>
  <g id="Group_18" data-name="Group 18" transform="translate(-925 -921.742)">
    <g id="Group_14" data-name="Group 14" transform="translate(925 921.742)">
      <g id="Group_13" data-name="Group 13" transform="translate(0 0)" clip-path="url(#clip-path)">
        <g id="Group_10" data-name="Group 10" transform="translate(136.256 36.642)">
          <path id="Path_5" data-name="Path 5" d="M-39.032-101.621a7.561,7.561,0,0,1-5.343-2.262c-.385-.364-.767-.732-1.15-1.1-.693-.664-1.387-1.333-2.1-1.976a7.857,7.857,0,0,0-5.367-2.327,7.07,7.07,0,0,0-.82.045l-4.459-6.677a4.675,4.675,0,0,1-.338-5.26,9.787,9.787,0,0,0,1.6-5.385c1.571-3.238,3.586-4.747,6.334-4.747a8.849,8.849,0,0,1,1.888.219,3.386,3.386,0,0,0,.749.071l.4-.009c2.833-.085,6.177-.671,7.57-4.517a1.8,1.8,0,0,1,.669-.957c2.59-.935,3.1-3.3,3.5-5.192.621-2.89,2.32-4.978,5.51-6.775,1.345-.757,2.761-1.457,4.13-2.132l1.642-.814c.112.022.264.041.414.063,1.244.173,2.065.286,2.208,1.81a1.577,1.577,0,0,0,1.645,1.472,2.012,2.012,0,0,0,1.154-.368,12.751,12.751,0,0,0,2.91-3.227,19.912,19.912,0,0,1,1.5-1.939,1.706,1.706,0,0,1,1.067-.686c.281,0,.583.24.9.721.194.3.374.6.555.9.918,1.552,1.957,3.309,4.57,3.309h0a.6.6,0,0,1,.508.2,2.015,2.015,0,0,1,.36,1.467,3.983,3.983,0,0,1-.154.645,2.145,2.145,0,0,0-.01,1.773,1.491,1.491,0,0,0,.549.528,1.425,1.425,0,0,0,.761.195,5.019,5.019,0,0,0,.984-.137,5.673,5.673,0,0,1,.724-.117h0a1.007,1.007,0,0,1,.31.1,2.976,2.976,0,0,0,1.274.322,2.462,2.462,0,0,0,2.121-1.444,23.776,23.776,0,0,1,1.824-2.742,5.1,5.1,0,0,1,4.531-2.16l1.133.017c1.882.024,3.37.039,4.876,1.346a2.568,2.568,0,0,0,1.707.645,2.661,2.661,0,0,0,2.589-2.147c.244-1.117.4-1.214,1.571-1.636A16.548,16.548,0,0,1,23.7-153.5a21.333,21.333,0,0,1,6,.926c1.43.416,2.653.875,3.156,2.249.685,1.872,2.288,2.446,3.734,2.837,1.675.455,3.343.957,5.009,1.461l.764.232a41.872,41.872,0,0,0-1.726,5.327c-.781,2.842-1.59,5.781-3.381,8.274-1.28,1.779-.453,3.838.28,5.227q.109.185.22.351a8.531,8.531,0,0,1-3.181,1.112l-.395.084a13.782,13.782,0,0,1-2.438.4c-.945,0-1.257-.489-2.582-2.794l-.185-.34a4.4,4.4,0,0,0-.784-1.154,3.95,3.95,0,0,0-2.709-1.229,3.375,3.375,0,0,0-1.383.307,14.176,14.176,0,0,0-2.248,1.359q-.327.224-.653.446a4.243,4.243,0,0,1-2.409.758,5.3,5.3,0,0,1-1.459-.219,28.393,28.393,0,0,0-4.986-1.058c-.265-.024-.519-.037-.762-.037-2.362,0-3.84,1.216-4.651,3.827l-.061.2a15.281,15.281,0,0,0-.638,2.58c-.259,2.136-1.148,3.047-2.974,3.047-.181,0-.37-.009-.569-.028-.074-.006-.145-.011-.215-.011-1.31,0-1.8,1.085-2.234,2.043l-.172.37c-.7,1.48-1.243,1.686-1.721,1.686a3.83,3.83,0,0,1-1.6-.5,7.858,7.858,0,0,1-.8-.485l-.561-.379a5.08,5.08,0,0,0-2.8-1.175,2.965,2.965,0,0,0-.629.069c-1.631.357-1.773,1.664-1.886,2.717a7.994,7.994,0,0,1-.116.818,2.272,2.272,0,0,1-2,1.714c-1.089.195-2.217.323-3.308.446l-1.078.123c-.483.059-.971.1-1.459.141a22.791,22.791,0,0,0-3,.392,3.123,3.123,0,0,0-2.463,3.913,7.509,7.509,0,0,0,.572,1.565c.09.195.178.392.258.589a1.02,1.02,0,0,1,.074.8,1.459,1.459,0,0,1-.923.606c-.351.113-.711.193-1.072.271l-.518.115a86.8,86.8,0,0,1-11.189,1.645l-2,.21c-.3.03-.6.047-.888.047" transform="translate(59.261 154.29)" fill="#92f1ea"/>
        </g>
        <g id="Group_11" data-name="Group 11" transform="translate(49.442 0)">
          <path id="Path_6" data-name="Path 6" d="M-74.755-131.973a5.328,5.328,0,0,1-3.755-1.636c-.338-.321-.662-.656-.986-.994a15.466,15.466,0,0,0-2.207-2.009l-1.019-.584c-1.926-3.428-5.076-5.478-7.885-7.129-2.595-1.535-4.512-3.091-5.425-5.7a5.029,5.029,0,0,0-3.991-3.415,6.766,6.766,0,0,1-4.658-3.922l-2.565-4.978c-.98-1.9-.783-3.067.73-4.3a2.491,2.491,0,0,0,1.122-2.006,2.6,2.6,0,0,0-1.394-1.95,17.689,17.689,0,0,1-6.54-7.85c-.207-.459-.177-.638-.155-.693.007-.015.024-.058.131-.1a1.753,1.753,0,0,1,.61-.106,1.08,1.08,0,0,1,.529.11,15.53,15.53,0,0,1,1.8,1.461c.262.234.532.474.816.719l.408.346.29-.45c.155-.24.322-.509.5-.8.407-.662.868-1.411,1.387-2.106,1.6-2.141,3.171-3.138,4.949-3.138a5.978,5.978,0,0,1,2.162.442,3.169,3.169,0,0,0,1.146.242,1.547,1.547,0,0,0,1.437-.809,3.175,3.175,0,0,1,1.932-1.388,9.388,9.388,0,0,0,.991-.428,6,6,0,0,0,1.652-1.485,3.729,3.729,0,0,1,1.533-1.279l.153-.039c1.528-.4,2.847-.745,3.7-2.37a1.58,1.58,0,0,1,.818-.638,5.5,5.5,0,0,0,1.334.167,8.8,8.8,0,0,0,4.666-1.8,9.047,9.047,0,0,1,3.841-1.667c1.276-.13,2.048-.305,2.476-.872.534-.712.341-1.76-.042-3.846a1.649,1.649,0,0,1,.457-1.046.964.964,0,0,1,.723-.364,1.177,1.177,0,0,1,.655.229,11.62,11.62,0,0,1,2.76,3,21.017,21.017,0,0,0,1.556,1.974c.576.625,1.039,1.069,1.724,1.069a5.744,5.744,0,0,0,2.616-1.18,2.981,2.981,0,0,0,.988-.545,4.654,4.654,0,0,0,1.34-2.024c.4-1.015.973-1.576,1.6-1.576A2.276,2.276,0,0,1-58.2-198.3a4.71,4.71,0,0,1,.471.922,5.873,5.873,0,0,0,.54,1.054,4.746,4.746,0,0,0,3.481,2.379c3.372.169,6.068,2.052,8.676,3.874a5.065,5.065,0,0,0,2.852,1.245,3.448,3.448,0,0,0,1.62-.446,2.338,2.338,0,0,1,1.017-.167l.4.006a2.161,2.161,0,0,1,1.983.991c.384.656.156,1-.727,1.7-.148.117-.3.227-.458.34a4.212,4.212,0,0,0-1.994,2.677l-.066.305.255.18a17.412,17.412,0,0,1,6.107,7.127,2.116,2.116,0,0,0,1.993,1.264,2.847,2.847,0,0,0,1.6-.515,5.941,5.941,0,0,0,.945-.862c.109-.115.218-.229.332-.34a3.894,3.894,0,0,1,1.2-.686A3.087,3.087,0,0,0-25.967-179a2.7,2.7,0,0,0-.756-2.638,3.461,3.461,0,0,1-.657-1.1,1.918,1.918,0,0,1-.053-.556,2.162,2.162,0,0,1,.933-.316,6.193,6.193,0,0,1,2.484,1,10.252,10.252,0,0,0,6.6,2.366,13.865,13.865,0,0,0,3.288-.424,1.828,1.828,0,0,1,.435-.06c.315,0,.362.125.388.2a1.681,1.681,0,0,1,.013,1.017c-.913.706-1.334,1.372-1.3,2.071.043.929.934,1.6,1.6,2.028a3.2,3.2,0,0,1,.815,1.015c.133.214.266.431.412.628a2.665,2.665,0,0,0,2.081,1.2,1.969,1.969,0,0,0,1.508-.714c.548-.625.918-.706,1.179-.706a2.762,2.762,0,0,1,1.123.34,17.738,17.738,0,0,0,3.764,1.368c2.994.66,4.7,1.537,5.145,4.279a3.636,3.636,0,0,0,2.01,2.422c1.968.775,2.274,2.266,2.389,4.29l-1.493.74c-1.38.682-2.807,1.385-4.176,2.154-3.4,1.913-5.293,4.264-5.965,7.4-.4,1.842-.806,3.747-2.9,4.5-.742.266-1.157,1.314-1.233,1.519-.962,2.658-2.886,3.788-6.642,3.9l-.444.011a2.516,2.516,0,0,1-.544-.048,9.677,9.677,0,0,0-2.092-.242c-3,0-5.3,1.613-7,4.926l-.383-.266a2.407,2.407,0,0,0-1.238-.515.958.958,0,0,0-.249.032,3.889,3.889,0,0,1-.934.119,4.428,4.428,0,0,1-3.076-1.578,2.7,2.7,0,0,0-1.856-.838,2.2,2.2,0,0,0-1.77.944,3.068,3.068,0,0,1-2.626,1.327,11.142,11.142,0,0,1-2.219-.316l-.256-.052a17.887,17.887,0,0,1-4.674-1.913c-.77-.4-1.564-.816-2.379-1.169-.455-.2-.907-.4-1.36-.608a16.469,16.469,0,0,0-6.767-1.968,8.911,8.911,0,0,0-2.311.308H-57.2a2.3,2.3,0,0,1-.832-.216c-.128-.05-.255-.1-.375-.139a8.1,8.1,0,0,0-2.311-.565c-1.4,0-1.457,1.413-1.494,2.446-.085,2.3-.246,3.751-2.373,4.357-.468.139-.813.634-1.156,1.665-.617,1.855-1.2,2.929-2.371,2.929a3.961,3.961,0,0,1-1.716-.507,1.64,1.64,0,0,0-.742-.178,3.377,3.377,0,0,0-1.522.5,5.049,5.049,0,0,1-.714.327,6.293,6.293,0,0,1-1.945.333" transform="translate(113.5 200.373)" fill="#92f1ea"/>
        </g>
        <g id="Group_12" data-name="Group 12" transform="translate(0 57.349)">
          <path id="Path_7" data-name="Path 7" d="M-180.433-136.893a3.051,3.051,0,0,1-1.288-.3,4,4,0,0,0-1.664-.32,5.868,5.868,0,0,0-.789.054,10.877,10.877,0,0,1-1.507.106,18.185,18.185,0,0,1-6.42-1.461,10.148,10.148,0,0,0-3.63-.855,5.949,5.949,0,0,0-.825.058l-.049.006q-2.207-.354-4.414-.7c-3.44-.545-6.88-1.091-10.31-1.69-3.81-.669-6.882-1.552-9.494-3.7-.221-.182-.449-.349-.675-.515-.928-.686-1.663-1.227-1.757-2.461-.092-1.195-1.253-1.682-2.1-2.039l-.19-.08c-.747-.32-.785-.861-.756-1.783a1.775,1.775,0,0,0,.032-1.593,1.155,1.155,0,0,0-1.028-.455,3.8,3.8,0,0,0-.9.128,15.767,15.767,0,0,1-6.911,1.513,21.186,21.186,0,0,1-2.153-.115c-.7-.074-1.409-.085-2.093-.1-.6-.011-1.208-.019-1.809-.072-.253-.022-.5-.034-.736-.034a4.549,4.549,0,0,0-4.605,3.1c-.882,2.173-1.891,3.275-3,3.275-.894,0-1.947-.682-3.128-2.03a3.513,3.513,0,0,0-2.86-1.238c-.375,0-.752.033-1.131.067-.213.019-.426.039-.638.052a3.12,3.12,0,0,0-.413-3.831,2.568,2.568,0,0,0-1.972-.963,5.261,5.261,0,0,0-2.625,1,4.939,4.939,0,0,1-2.6.87,3.718,3.718,0,0,1-1.912-.554,3.411,3.411,0,0,0-.807-2.435,2.7,2.7,0,0,0-2-.766,4.395,4.395,0,0,0-.856.089,7.3,7.3,0,0,0-1.28-.872,3.17,3.17,0,0,1-1.667-1.924c-.338-1.166-.993-2.682-.089-4.262,1.067-1.861,1.889-3.461.506-5.034l-.257-.281c.052,0,.1,0,.154,0a1.589,1.589,0,0,0,1.021-.292,2.169,2.169,0,0,1,1.416-.541,5.278,5.278,0,0,1,1.677.4,10.346,10.346,0,0,0,1.111.344,3.815,3.815,0,0,1,3.155,3.156c.1.706.1,1.145.522,1.535.564.517,1.361.844,1.253,1.536a1.18,1.18,0,0,0,.218.991c.135.158-.1.344.348.344a2.542,2.542,0,0,0,1.208-.361,6.758,6.758,0,0,0,3.753-5.082c.014-.113.024-.227.033-.344a1.63,1.63,0,0,1,.745-1.474c.164,0,.346.009.54.017.315.011.661.024,1.023.024a10.959,10.959,0,0,0,1.267-.067,8.676,8.676,0,0,1,1.011-.065,3.533,3.533,0,0,1,3.748,2.708c.556,1.656,1.958,1.744,3.2,1.82l.439.03q.325.026.641.026c2.835,0,5.131-1.532,7.157-2.883.35-.234.694-.463,1.036-.682a8.694,8.694,0,0,1,5-1.541l.38.007c.544.022,1.086.056,1.63.091.383.024.767.05,1.151.069.32.017.637.028.944.028a3.386,3.386,0,0,0,2.769-.946c.418-.532-.881-2.007-.993-3a32.182,32.182,0,0,0,3.888,1.574,5.818,5.818,0,0,1,2.338.974,2.553,2.553,0,0,0,1.677.569,7.187,7.187,0,0,0,1.431-.195,6.517,6.517,0,0,1,1.247-.173,1.867,1.867,0,0,1,.647.1c.652.24.81.8,1.014,1.692a3.386,3.386,0,0,0,1.347,2.387,3.175,3.175,0,0,0,1.675.524,2.1,2.1,0,0,0,2.156-1.247c1.043-2.4,1.5-2.482-.691-4.019-1.267-.887-1.916-2.446-1.193-3.5a3.052,3.052,0,0,0-.05-3.621c-.783-1.262-1.564-2.528-2.314-3.814a2.5,2.5,0,0,1-.174-2.3,1.921,1.921,0,0,1,1.188-1.517,53.915,53.915,0,0,1,5.742-2.426l.895-.338c2.633-1,4.051-2.368,4.329-5,.219-2.08.268-2.338.83-2.338a12.324,12.324,0,0,1,1.606.195,5.114,5.114,0,0,1,.616.152,3.953,3.953,0,0,0,1.072.21h0c1.3,0,1.788.171,1.98-1.015a15.576,15.576,0,0,0,.246-2.447c.007-.195.61-1.441.619-1.64.1.063.094-.516.2-.445a13.937,13.937,0,0,1,2.137,1.937c.339.353.676.706,1.028,1.037a6.307,6.307,0,0,0,4.4,1.892,7.182,7.182,0,0,0,2.237-.381,5.876,5.876,0,0,0,.851-.383,2.684,2.684,0,0,1,1.093-.4.7.7,0,0,1,.322.076,4.811,4.811,0,0,0,2.136.606c1.914,0,2.66-1.764,3.26-3.571.308-.92.514-1.05.537-1.061,2.878-.822,2.96-3.058,3.04-5.22.056-1.543.267-1.543.558-1.543a7.975,7.975,0,0,1,2.009.513c.107.037.219.082.335.128a3.194,3.194,0,0,0,1.123.29,1.3,1.3,0,0,0,.336-.043,7.878,7.878,0,0,1,2.067-.275c2.238,0,4.25.916,6.381,1.883.457.208.915.416,1.374.615.782.34,1.563.747,2.316,1.141a18.829,18.829,0,0,0,4.921,2l.254.052a12.135,12.135,0,0,0,2.408.338,3.982,3.982,0,0,0,3.369-1.695,1.286,1.286,0,0,1,1.027-.578,1.812,1.812,0,0,1,1.207.578,5.365,5.365,0,0,0,3.725,1.84,4.918,4.918,0,0,0,1.161-.149h0a1.957,1.957,0,0,1,.732.351l.2.136c.153.106.3.21.453.3a9.077,9.077,0,0,1-1.5,4.747,5.6,5.6,0,0,0,.382,6.225l4.448,6.662c-1.591,2.522-1.04,5.141-.333,7.614a1.285,1.285,0,0,1-.125,1.11,1.541,1.541,0,0,1-1.177.593c-.286.024-.569.035-.852.035a17.811,17.811,0,0,1-4.49-.71,6.422,6.422,0,0,0-1.594-.227,3.6,3.6,0,0,0-2.961,1.455l-.247.316.272.292a7.306,7.306,0,0,0,2.047,1.418,5.079,5.079,0,0,1,1.947,1.459,2,2,0,0,1,.41,1.71,1.8,1.8,0,0,1-1.175,1.089,3.2,3.2,0,0,1-.683.143,3.474,3.474,0,0,0-.964.225,3.779,3.779,0,0,0-2.247,2.242,2.284,2.284,0,0,0,.346,1.974c3.026,4.424.555,6.974-2.725,9.619a9.38,9.38,0,0,0-1.556,1.766c-.2.266-.367.5-.541.719a4.348,4.348,0,0,0-2.878,1.723,4.047,4.047,0,0,0-.347,3.16.615.615,0,0,1-.037.487.643.643,0,0,1-.5.158,1.489,1.489,0,0,1-.237-.019,6.556,6.556,0,0,1-1.195-.329c-.3-.1-.593-.206-.9-.284a6.99,6.99,0,0,0-1.656-.216,4.365,4.365,0,0,0-3.408,1.545,4.218,4.218,0,0,1-3.275,1.593,6.837,6.837,0,0,1-2.3-.457,11.971,11.971,0,0,0-3.324-.507l-.646-.039c-.206-.013-.408-.022-.607-.022a4.272,4.272,0,0,0-4.061,2.277,10.1,10.1,0,0,1-2.561,2.664,4.656,4.656,0,0,1-2.824,1.314" transform="translate(273.948 207.842)" fill="#92f1ea"/>
        </g>
      </g>
    </g>
    <g id="Group_15" data-name="Group 15" transform="translate(927.291 1021.515)">
      <path id="Path_9" data-name="Path 9" d="M4.26,0,2.8.844l2.943,1.7L8.679.847,7.217,0,5.739.854Z" transform="translate(-2.646 0)" fill="#193342"/>
      <path id="Path_10" data-name="Path 10" d="M0,22.023l1.476.853v1.708l1.462.845v-3.4L0,20.334Z" transform="translate(0 -19.229)" fill="#193342"/>
      <path id="Path_11" data-name="Path 11" d="M59.764,22.031v3.4l1.462-.845V22.876l1.476-.853V20.333Z" transform="translate(-56.515 -19.229)" fill="#193342"/>
    </g>
    <g id="Group_16" data-name="Group 16" transform="translate(1140.357 972.687)">
      <path id="Path_9-2" data-name="Path 9" d="M4.26,0,2.8.844l2.943,1.7L8.679.847,7.217,0,5.739.854Z" transform="translate(-2.646 0)" fill="#193342"/>
      <path id="Path_10-2" data-name="Path 10" d="M0,22.023l1.476.853v1.708l1.462.845v-3.4L0,20.334Z" transform="translate(0 -19.229)" fill="#193342"/>
      <path id="Path_11-2" data-name="Path 11" d="M59.764,22.031v3.4l1.462-.845V22.876l1.476-.853V20.333Z" transform="translate(-56.515 -19.229)" fill="#193342"/>
    </g>
    <g id="Group_17" data-name="Group 17" transform="translate(1008.966 950.493)">
      <path id="Path_9-3" data-name="Path 9" d="M4.26,0,2.8.844l2.943,1.7L8.679.847,7.217,0,5.739.854Z" transform="translate(-2.646 0)" fill="#193342"/>
      <path id="Path_10-3" data-name="Path 10" d="M0,22.023l1.476.853v1.708l1.462.845v-3.4L0,20.334Z" transform="translate(0 -19.229)" fill="#193342"/>
      <path id="Path_11-3" data-name="Path 11" d="M59.764,22.031v3.4l1.462-.845V22.876l1.476-.853V20.333Z" transform="translate(-56.515 -19.229)" fill="#193342"/>
    </g>
  </g>
</svg>
