<?xml version="1.0" standalone="no"?>
<!DOCTYPE svg PUBLIC "-//W3C//DTD SVG 20010904//EN"
 "http://www.w3.org/TR/2001/REC-SVG-20010904/DTD/svg10.dtd">
<svg version="1.0" xmlns="http://www.w3.org/2000/svg"
 width="1000.000000pt" height="1000.000000pt" viewBox="0 0 1000.000000 1000.000000"
 preserveAspectRatio="xMidYMid meet">
<metadata>
Created by potrace 1.14, written by Peter Selinger 2001-2017
</metadata>
<g transform="translate(0.000000,1000.000000) scale(0.100000,-0.100000)"
fill="#000000" stroke="none">
<path d="M2596 9993 c-8 -9 -74 -47 -151 -88 -27 -15 -57 -33 -65 -40 -8 -7
-25 -16 -37 -19 -13 -4 -23 -12 -23 -17 0 -5 -9 -9 -19 -9 -11 0 -21 -3 -23
-8 -4 -9 -126 -82 -137 -82 -4 0 -16 -7 -26 -15 -11 -9 -72 -45 -135 -81 -63
-36 -131 -75 -150 -86 -19 -11 -53 -30 -75 -41 -22 -12 -48 -30 -59 -39 -10
-10 -23 -15 -27 -12 -4 2 -10 0 -14 -6 -3 -5 -23 -17 -43 -27 -20 -9 -39 -20
-42 -23 -4 -5 -266 -157 -335 -194 -11 -6 -28 -17 -37 -25 -10 -8 -18 -10 -18
-5 0 5 -4 4 -8 -2 -6 -9 -92 -62 -142 -87 -8 -4 -33 -18 -55 -31 -22 -14 -56
-32 -75 -42 -19 -10 -37 -21 -40 -24 -3 -4 -12 -9 -20 -13 -8 -4 -33 -18 -55
-31 -42 -26 -52 -32 -150 -86 -33 -18 -62 -36 -65 -40 -3 -4 -15 -10 -27 -14
-13 -4 -23 -12 -23 -17 0 -5 -9 -9 -19 -9 -11 0 -22 -4 -25 -9 -3 -4 -53 -35
-111 -67 -57 -33 -105 -61 -105 -65 0 -3 19 -15 43 -27 23 -12 60 -33 82 -46
22 -14 51 -31 65 -39 92 -51 458 -263 480 -277 8 -6 29 -17 45 -25 17 -9 48
-27 70 -40 22 -14 47 -28 55 -32 8 -4 17 -9 20 -12 3 -3 21 -14 40 -24 65 -35
95 -52 100 -58 3 -4 15 -9 28 -13 12 -4 22 -12 22 -17 0 -5 9 -9 19 -9 11 0
21 -4 23 -8 2 -5 41 -30 88 -56 47 -27 101 -58 120 -69 19 -11 60 -34 90 -50
30 -17 61 -37 68 -44 8 -7 18 -11 23 -8 5 4 9 1 9 -4 0 -6 4 -11 10 -11 5 0
34 -16 64 -35 29 -19 56 -31 60 -28 3 4 6 2 6 -4 0 -5 21 -21 48 -34 26 -13
49 -26 52 -29 5 -5 24 -16 99 -57 25 -14 53 -32 62 -39 8 -8 23 -14 32 -14 9
0 20 -6 24 -12 4 -7 26 -22 48 -33 22 -11 42 -22 45 -25 3 -3 23 -15 45 -27
90 -48 118 -65 132 -79 8 -8 18 -12 23 -9 5 3 11 1 15 -5 3 -6 25 -20 48 -31
23 -12 44 -25 47 -28 3 -4 34 -22 70 -40 36 -19 76 -43 89 -53 13 -10 27 -18
32 -18 4 0 37 -18 71 -40 35 -22 69 -40 76 -40 6 0 12 -4 12 -10 0 -5 4 -10
10 -10 5 0 33 -14 62 -31 49 -30 78 -46 139 -81 13 -7 26 -15 29 -18 3 -3 23
-14 45 -25 22 -11 46 -26 53 -32 7 -7 20 -13 28 -13 8 0 14 -4 14 -9 0 -5 11
-12 25 -15 14 -4 25 -11 25 -16 0 -6 9 -10 20 -10 11 0 20 -4 20 -8 0 -4 19
-18 43 -30 23 -12 58 -31 77 -43 67 -39 95 -53 103 -51 4 1 7 -2 7 -7 0 -10
16 -20 90 -57 19 -10 53 -30 75 -44 22 -15 50 -30 63 -34 12 -4 22 -12 22 -18
0 -6 3 -8 6 -5 4 3 18 -3 32 -13 13 -11 31 -20 38 -20 8 0 14 -3 14 -7 0 -5
10 -13 23 -19 53 -26 113 -60 123 -69 6 -6 41 -26 77 -44 37 -19 67 -38 67
-42 0 -5 9 -9 20 -9 10 0 24 -8 29 -17 6 -10 11 -15 11 -11 0 4 33 -13 74 -37
40 -25 79 -45 85 -45 6 0 11 -4 11 -8 0 -5 16 -14 35 -22 19 -8 35 -17 35 -21
0 -4 8 -9 18 -12 18 -6 73 -38 82 -48 3 -3 20 -11 38 -18 17 -8 32 -18 32 -23
0 -5 4 -7 8 -4 5 3 19 -4 30 -15 12 -11 22 -17 22 -14 0 4 12 -2 28 -12 46
-31 66 -43 82 -50 8 -4 17 -9 20 -12 3 -4 16 -11 31 -18 22 -10 35 -5 115 43
49 29 94 53 100 54 6 0 17 7 24 15 7 8 16 12 21 9 5 -3 9 -1 9 3 0 5 28 24 63
42 34 19 70 41 81 50 10 9 19 14 20 12 1 -5 16 4 81 45 17 10 33 17 38 16 4
-1 7 2 7 7 0 5 16 15 35 21 19 6 35 15 35 18 0 4 23 18 50 31 28 13 50 28 50
32 0 5 9 9 20 9 11 0 20 4 20 9 0 5 10 13 23 17 12 4 41 20 65 36 23 16 42 26
42 22 0 -4 7 1 15 12 8 10 15 15 15 9 0 -7 3 -7 8 0 4 6 23 18 42 28 68 36 95
52 108 65 7 6 18 12 23 12 6 0 29 13 52 29 23 16 47 30 52 31 6 2 19 8 30 15
50 30 111 63 118 64 4 0 14 6 22 13 25 23 40 33 54 36 7 1 37 18 67 37 30 19
54 32 54 29 0 -3 7 2 16 10 8 9 22 16 30 16 8 0 14 5 14 10 0 6 7 10 15 10 8
0 15 5 15 10 0 6 9 10 20 10 11 0 20 4 20 8 0 5 18 17 40 27 22 10 40 22 40
27 0 4 9 8 20 8 11 0 20 5 20 10 0 6 4 10 10 10 5 0 39 18 75 40 36 22 67 40
69 40 3 0 37 19 78 43 40 24 94 55 119 69 85 48 94 53 99 59 3 3 17 12 31 20
58 31 145 80 159 89 8 5 71 42 140 81 69 39 136 79 150 87 14 9 28 17 32 17 4
0 13 6 19 13 7 6 17 12 21 12 10 0 111 62 119 73 3 5 8 8 10 7 9 -3 45 15 63
32 11 10 28 18 38 18 10 0 18 4 18 9 0 5 15 14 33 22 17 7 34 16 37 20 3 3 21
14 40 24 19 10 37 21 40 24 3 3 28 17 55 31 28 14 56 31 63 37 7 7 20 13 28
13 8 0 14 4 14 9 0 5 9 13 20 16 11 4 48 24 83 44 55 34 118 70 192 109 14 7
25 18 25 23 0 6 4 8 9 5 5 -3 24 4 42 17 19 12 54 33 79 46 25 14 47 27 50 30
3 3 31 19 63 36 31 16 57 32 57 36 0 4 14 10 30 14 17 4 30 10 30 13 0 4 21
18 48 32 26 14 65 37 87 51 22 15 43 25 47 23 5 -3 8 0 8 5 0 6 7 11 15 11 8
0 15 4 15 8 0 5 16 14 35 22 19 8 35 17 35 22 0 4 6 8 13 8 7 0 28 11 47 23
19 13 60 37 90 54 107 59 270 155 270 158 0 5 -92 60 -100 60 -3 0 -24 13 -47
28 -24 15 -47 27 -53 27 -5 0 -10 4 -10 9 0 5 -8 11 -17 14 -25 8 -97 50 -105
62 -4 6 -8 6 -8 2 0 -5 -12 1 -26 12 -15 12 -32 21 -40 21 -7 0 -14 4 -16 8
-3 9 -21 20 -98 59 -19 10 -37 21 -40 24 -5 7 -104 62 -147 83 -13 6 -23 14
-23 19 0 4 -5 7 -10 7 -6 0 -28 11 -49 24 -21 14 -42 22 -45 19 -3 -4 -6 -2
-6 4 0 6 -25 23 -55 38 -30 16 -55 32 -55 37 0 5 -4 7 -9 4 -5 -3 -20 3 -34
14 -14 11 -30 20 -36 20 -6 0 -11 3 -11 8 0 4 -10 12 -23 18 -22 11 -66 35
-152 84 -194 110 -271 155 -275 159 -3 3 -14 11 -25 17 -66 35 -351 199 -355
204 -3 3 -20 12 -37 19 -18 8 -33 16 -33 20 0 3 -14 12 -30 19 -17 8 -75 40
-129 73 -54 32 -104 59 -110 59 -6 0 -11 5 -11 10 0 6 -4 10 -9 10 -6 0 -36
16 -68 35 l-57 34 -36 -21 c-51 -31 -216 -125 -280 -161 -30 -17 -57 -33 -60
-36 -3 -4 -24 -15 -47 -26 -24 -11 -43 -23 -43 -27 0 -5 -6 -8 -14 -8 -7 0
-19 -7 -26 -15 -7 -9 -15 -13 -18 -11 -2 3 -27 -11 -56 -30 -28 -18 -54 -34
-58 -34 -3 0 -43 -22 -87 -50 -45 -27 -81 -47 -81 -44 0 3 -7 -2 -16 -10 -8
-9 -22 -16 -30 -16 -8 0 -14 -4 -14 -10 0 -5 -7 -10 -15 -10 -8 0 -15 -5 -15
-11 0 -5 -4 -7 -10 -4 -5 3 -10 3 -10 -2 0 -4 -20 -17 -44 -27 -25 -11 -43
-24 -40 -28 3 -4 -2 -8 -11 -8 -9 0 -29 -8 -43 -17 -56 -37 -68 -44 -84 -49
-10 -4 -18 -10 -18 -14 0 -5 -13 -11 -30 -15 -16 -4 -30 -10 -30 -13 0 -4 -21
-18 -47 -32 -27 -13 -50 -27 -53 -30 -3 -3 -22 -14 -42 -25 -21 -11 -38 -23
-38 -27 0 -5 -3 -7 -7 -6 -11 3 -76 -32 -85 -46 -4 -6 -8 -7 -8 -3 0 5 -7 1
-16 -7 -8 -9 -20 -14 -25 -11 -5 4 -9 1 -9 -4 0 -6 -7 -11 -15 -11 -8 0 -15
-4 -15 -9 0 -5 -9 -13 -20 -16 -11 -4 -49 -24 -85 -46 -36 -21 -69 -39 -75
-39 -5 0 -10 -4 -10 -9 0 -5 -17 -16 -37 -25 -50 -22 -106 -56 -115 -70 -4 -6
-8 -8 -8 -3 0 4 -17 -3 -37 -16 -21 -12 -50 -29 -65 -36 -16 -8 -28 -18 -28
-23 0 -4 -7 -8 -15 -8 -8 0 -31 -11 -51 -25 -20 -14 -43 -25 -50 -25 -7 0 -17
-6 -21 -13 -4 -6 -30 -23 -56 -37 -70 -36 -87 -46 -100 -59 -18 -18 -43 -13
-97 19 -28 17 -55 30 -60 30 -6 0 -10 4 -10 9 0 5 -8 11 -17 15 -19 6 -63 30
-107 59 -14 10 -26 15 -26 12 0 -3 -6 -1 -12 5 -26 21 -84 56 -115 69 -18 7
-33 17 -33 21 0 4 -8 10 -17 13 -10 3 -45 22 -78 41 -33 20 -68 39 -77 42 -10
4 -18 10 -18 15 0 5 -5 9 -11 9 -6 0 -24 9 -40 21 -16 11 -29 17 -29 14 0 -4
-7 1 -16 9 -8 9 -22 16 -30 16 -8 0 -14 5 -14 11 0 5 -4 7 -10 4 -5 -3 -10 -1
-10 4 0 6 -7 11 -15 11 -8 0 -15 4 -15 9 0 5 -11 12 -25 15 -14 4 -25 11 -25
17 0 6 -4 8 -9 5 -5 -3 -14 1 -21 9 -7 8 -18 15 -25 15 -7 0 -18 7 -25 15 -7
8 -21 15 -31 15 -11 0 -19 4 -19 8 0 5 -15 16 -32 25 -18 9 -60 33 -93 52 -33
20 -72 41 -87 48 -16 6 -28 15 -28 19 0 4 -7 8 -15 8 -8 0 -15 5 -15 10 0 6
-6 10 -13 10 -7 0 -34 13 -59 29 -25 16 -67 41 -94 56 -102 57 -139 80 -142
87 -2 5 -7 6 -12 3 -5 -3 -14 1 -22 8 -7 8 -18 16 -23 18 -18 7 -150 83 -155
88 -3 4 -18 13 -35 21 -16 8 -32 17 -35 21 -3 3 -21 13 -40 23 -47 23 -94 50
-100 56 -3 3 -16 11 -30 18 -51 26 -140 78 -152 90 -7 7 -15 12 -20 12 -4 0
-41 20 -82 44 -84 49 -109 60 -120 49z"/>
<path d="M10 6852 l0 -1357 23 -15 c12 -8 25 -14 29 -15 4 0 17 -8 28 -17 11
-10 27 -18 35 -18 8 0 15 -4 15 -10 0 -5 11 -12 25 -16 14 -3 25 -10 25 -16 0
-5 4 -6 10 -3 5 3 10 1 10 -4 0 -6 9 -11 19 -11 11 0 21 -4 23 -9 4 -11 140
-94 156 -94 6 0 12 -3 12 -6 0 -3 21 -17 47 -31 27 -13 50 -27 53 -30 3 -3 16
-11 29 -18 13 -8 40 -23 60 -34 20 -12 54 -31 76 -42 22 -12 44 -24 50 -29 29
-22 85 -56 85 -51 0 3 13 -4 29 -15 16 -12 34 -21 40 -21 6 0 11 -3 11 -8 0
-4 9 -12 19 -17 91 -47 116 -61 119 -67 2 -5 9 -8 17 -8 7 0 18 -7 25 -15 7
-8 16 -13 20 -10 4 3 11 -2 14 -11 4 -9 9 -14 13 -11 3 4 18 -2 32 -12 14 -10
33 -21 41 -24 8 -4 33 -18 55 -32 22 -13 59 -34 83 -47 23 -12 42 -25 42 -30
0 -4 9 -8 20 -8 11 0 20 -4 20 -10 0 -5 7 -10 15 -10 8 0 15 -5 15 -11 0 -5 5
-7 10 -4 6 3 10 1 10 -4 0 -6 4 -11 9 -11 6 0 64 -31 130 -70 66 -39 124 -70
130 -70 6 0 11 -5 11 -10 0 -6 11 -15 25 -20 36 -14 189 -103 193 -112 2 -4 8
-8 13 -8 5 0 76 -39 157 -86 81 -48 152 -87 159 -87 7 0 14 -6 17 -14 3 -7 11
-13 18 -13 7 0 24 -9 37 -19 l24 -18 0 -1370 c0 -754 2 -1375 6 -1380 6 -10
52 -37 189 -114 20 -12 90 -52 154 -90 64 -38 122 -69 128 -69 6 0 13 -7 16
-15 4 -8 13 -15 22 -15 8 0 23 -6 31 -14 9 -7 48 -30 86 -51 39 -21 87 -49
107 -62 21 -12 42 -23 48 -23 5 0 10 -4 10 -8 0 -5 16 -14 35 -22 19 -8 35
-17 35 -22 0 -4 6 -8 14 -8 7 0 19 -7 26 -15 7 -9 19 -14 26 -11 7 3 14 -1 17
-7 2 -7 25 -23 51 -35 25 -13 48 -27 51 -33 4 -5 11 -7 16 -4 5 4 9 2 9 -3 0
-5 8 -12 18 -15 23 -8 75 -40 84 -52 4 -5 8 -6 8 -2 0 5 7 1 16 -7 8 -9 22
-16 30 -16 8 0 14 -4 14 -10 0 -5 6 -10 14 -10 8 0 22 -7 30 -16 9 -8 16 -13
16 -9 0 3 13 -3 29 -14 16 -12 34 -21 39 -21 6 0 12 -4 14 -8 2 -5 39 -28 83
-52 44 -24 82 -46 85 -49 4 -5 27 -18 115 -65 11 -6 22 -14 25 -17 3 -3 20
-12 38 -20 17 -8 32 -17 32 -21 0 -5 9 -8 20 -8 11 0 20 -4 20 -8 0 -5 12 -15
28 -23 15 -7 86 -48 157 -90 72 -41 137 -79 145 -83 8 -4 24 -12 35 -19 11 -7
47 -27 80 -46 33 -19 62 -38 65 -41 3 -4 13 -9 23 -13 15 -5 17 0 17 41 5 465
4 612 -5 612 -7 0 -7 3 0 8 6 4 10 21 10 37 0 17 -4 33 -10 37 -7 5 -7 8 0 8
6 0 10 45 10 115 0 70 -4 115 -10 115 -7 0 -7 3 0 8 6 4 10 109 10 280 0 174
-4 272 -10 272 -7 0 -7 3 0 8 6 4 10 55 10 117 0 62 -4 113 -10 117 -7 5 -7 8
0 8 11 0 11 242 0 260 -3 5 -3 10 2 10 4 0 8 31 8 70 0 38 -4 70 -8 70 -5 0
-5 5 -1 12 6 9 9 162 3 178 -1 3 -1 9 0 13 5 29 2 217 -3 226 -4 6 -4 11 1 11
8 0 8 293 0 352 -2 16 -1 28 2 28 7 0 4 112 -3 143 -2 9 -1 17 2 17 4 0 6 15
5 32 -1 18 -2 538 -2 1156 -1 787 -4 1122 -12 1122 -6 0 -49 23 -97 51 -48 29
-101 60 -117 69 -17 9 -86 49 -153 89 -68 39 -127 71 -132 71 -6 0 -10 5 -10
10 0 6 -6 10 -14 10 -8 0 -16 3 -18 8 -1 4 -19 15 -38 24 -19 10 -57 31 -85
48 -27 17 -58 33 -67 37 -10 3 -18 9 -18 14 0 5 -4 9 -9 9 -5 0 -48 22 -95 50
-47 27 -86 46 -86 42 0 -4 -5 1 -11 11 -5 9 -17 17 -24 17 -8 0 -15 5 -15 11
0 5 -4 8 -9 5 -5 -3 -14 1 -21 9 -7 8 -18 15 -25 15 -7 0 -18 7 -25 15 -7 8
-16 12 -21 9 -5 -3 -9 -1 -9 5 0 6 -11 13 -25 17 -14 3 -25 10 -25 14 0 5 -10
12 -22 16 -13 3 -31 13 -40 22 -10 8 -18 11 -18 6 0 -5 -4 -4 -8 2 -8 12 -150
94 -162 94 -5 0 -10 3 -12 8 -1 4 -23 18 -48 31 -25 14 -47 27 -50 30 -3 3
-19 13 -35 22 -78 40 -121 65 -127 74 -5 7 -8 7 -8 0 0 -6 -3 -6 -8 1 -8 13
-138 86 -148 84 -4 -1 -11 5 -16 14 -5 9 -16 16 -23 16 -8 0 -15 5 -15 11 0 5
-4 7 -10 4 -6 -3 -10 -1 -10 6 0 7 -3 10 -6 6 -4 -3 -26 7 -50 23 -23 17 -47
30 -53 30 -6 0 -11 5 -11 10 0 6 -9 10 -19 10 -11 0 -21 4 -23 8 -2 6 -243
149 -337 199 -14 8 -44 25 -66 39 -22 13 -47 27 -55 31 -8 3 -26 15 -39 25
-13 10 -27 15 -32 12 -5 -3 -9 -1 -9 4 0 5 -15 17 -32 26 -18 9 -46 25 -63 35
-16 10 -48 28 -70 41 -22 12 -97 56 -167 96 -69 41 -131 74 -137 74 -6 0 -11
3 -11 8 0 4 -21 18 -47 32 -27 13 -75 40 -108 60 -33 20 -84 51 -113 68 -29
18 -55 32 -57 32 -3 0 -34 18 -70 40 -36 22 -70 40 -75 40 -6 0 -10 5 -10 12
0 6 -3 9 -6 6 -3 -3 -29 9 -57 28 -28 19 -57 34 -64 34 -7 0 -13 5 -13 11 0 5
-5 7 -10 4 -6 -3 -10 -1 -10 4 0 6 -7 11 -15 11 -8 0 -15 4 -15 8 0 5 -16 14
-35 22 -19 8 -35 17 -35 22 0 4 -5 8 -10 8 -6 0 -28 11 -49 24 -21 14 -42 22
-45 19 -3 -4 -6 -1 -6 5 0 7 -7 12 -15 12 -8 0 -15 3 -15 8 0 4 -10 12 -23 18
-39 19 -142 77 -147 83 -3 3 -21 14 -40 24 -68 36 -95 52 -108 65 -8 7 -18 10
-23 7 -5 -4 -9 -2 -9 2 0 8 -71 50 -77 46 -1 -2 -14 7 -27 18 -13 12 -26 19
-29 18 -2 -2 -11 2 -21 10 -21 18 -76 50 -98 57 -10 4 -18 11 -18 16 0 5 -4 7
-9 3 -5 -3 -12 -1 -15 4 -7 11 -95 61 -107 61 -5 0 -9 -590 -9 -1358z"/>
<path d="M9898 8165 c-43 -25 -82 -45 -88 -45 -5 0 -10 -4 -10 -8 0 -5 -16
-14 -35 -22 -19 -8 -35 -17 -35 -20 0 -4 -22 -17 -50 -30 -27 -13 -50 -26 -50
-30 0 -5 -41 -23 -63 -28 -4 -1 -16 -10 -27 -20 -11 -10 -40 -28 -65 -41 -24
-12 -47 -26 -50 -32 -4 -5 -11 -7 -16 -4 -5 4 -9 2 -9 -3 0 -7 -41 -32 -60
-37 -3 0 -30 -16 -60 -35 -30 -19 -57 -35 -60 -35 -3 0 -18 -9 -33 -19 -29
-19 -71 -44 -117 -68 -14 -7 -27 -15 -30 -18 -3 -3 -22 -14 -42 -25 -21 -11
-38 -23 -38 -28 0 -4 -4 -5 -10 -2 -5 3 -10 1 -10 -5 0 -6 -4 -9 -9 -6 -4 3
-19 -3 -31 -14 -12 -11 -27 -17 -31 -14 -5 3 -9 2 -9 -3 0 -8 -27 -26 -95 -63
-16 -9 -48 -27 -70 -39 -21 -13 -91 -53 -155 -89 -63 -36 -117 -68 -120 -71
-3 -3 -21 -14 -40 -24 -45 -23 -94 -51 -100 -57 -3 -3 -23 -14 -45 -25 -22
-11 -42 -23 -45 -26 -3 -4 -30 -19 -60 -35 -30 -15 -56 -32 -58 -36 -2 -4 -7
-8 -12 -8 -8 0 -201 -110 -210 -120 -3 -3 -26 -16 -52 -30 -26 -14 -100 -55
-164 -92 -64 -38 -121 -68 -125 -68 -5 0 -9 -4 -9 -10 0 -5 -5 -10 -11 -10 -6
0 -24 -9 -40 -21 -16 -11 -29 -17 -29 -12 0 4 -4 3 -8 -2 -9 -14 -218 -135
-232 -135 -5 0 -10 -4 -10 -10 0 -5 -7 -10 -15 -10 -8 0 -15 -5 -15 -11 0 -5
-4 -7 -10 -4 -5 3 -10 1 -10 -5 0 -6 -4 -8 -10 -5 -5 3 -10 1 -10 -5 0 -6 -4
-8 -10 -5 -5 3 -10 2 -10 -3 0 -5 -17 -17 -37 -28 -21 -10 -41 -23 -44 -27 -3
-5 -10 -9 -15 -9 -9 -1 -24 -9 -81 -45 -16 -10 -31 -18 -35 -18 -4 0 -16 -7
-26 -15 -10 -8 -24 -16 -31 -18 -7 -1 -20 -9 -28 -17 -8 -8 -21 -15 -29 -15
-8 0 -14 -4 -14 -10 0 -5 -11 -12 -25 -16 -13 -3 -29 -12 -36 -20 -6 -8 -15
-11 -20 -8 -5 3 -9 0 -9 -5 0 -6 -7 -11 -15 -11 -8 0 -15 -5 -15 -11 0 -5 -5
-7 -10 -4 -6 3 -13 -1 -16 -9 -3 -9 -10 -14 -14 -11 -4 3 -18 -3 -31 -13 -35
-25 -61 -41 -85 -51 -32 -14 -128 -74 -135 -84 -3 -5 -10 -9 -15 -9 -15 -1
-37 -11 -54 -25 -8 -7 -17 -12 -20 -11 -3 2 -19 -7 -35 -19 -17 -12 -58 -36
-90 -54 -33 -18 -62 -35 -65 -38 -3 -4 -24 -15 -47 -26 -24 -11 -43 -23 -43
-27 0 -5 -6 -8 -14 -8 -7 0 -19 -7 -26 -15 -7 -9 -15 -13 -18 -10 -3 3 -12 -1
-20 -7 -8 -7 -23 -17 -33 -23 -37 -20 -227 -130 -369 -213 -80 -47 -163 -95
-185 -108 l-40 -22 -2 -317 c-1 -174 -4 -323 -7 -330 -2 -7 -2 -16 1 -19 5 -4
7 -477 2 -502 -1 -5 -1 -13 0 -19 2 -13 2 -449 0 -461 -1 -5 -1 -13 0 -19 2
-16 0 -3421 -2 -3538 -1 -59 1 -107 5 -107 4 0 4 -9 0 -19 -4 -11 -5 -49 -4
-86 l4 -66 41 24 c60 35 107 62 147 83 19 11 37 21 40 24 7 7 43 29 60 37 8 3
47 26 87 50 39 24 76 43 81 43 6 0 12 5 14 11 2 5 12 11 21 13 10 1 22 7 25
12 4 5 18 15 32 21 14 7 48 26 75 43 28 16 57 33 65 37 8 4 74 42 148 85 73
43 137 78 142 78 4 0 10 4 12 9 2 5 10 11 18 13 8 2 23 11 34 21 11 9 26 17
33 17 7 0 13 5 13 12 0 6 3 9 6 5 3 -3 30 10 59 29 30 19 58 34 63 34 5 0 15
7 22 15 7 8 16 12 21 9 5 -3 12 2 15 10 3 9 10 13 15 10 5 -3 9 0 9 5 0 6 6
11 14 11 7 0 19 7 26 15 7 9 15 13 18 11 5 -6 84 42 93 56 3 5 10 10 15 9 12
0 257 140 265 152 3 5 10 8 15 8 5 -1 16 5 24 12 8 7 18 14 22 15 30 10 44 16
48 22 3 4 37 24 75 45 39 21 72 42 73 46 2 5 12 9 23 9 10 0 19 4 19 9 0 5 8
11 18 15 9 3 31 14 47 23 73 44 151 90 165 96 21 11 51 29 77 47 l22 16 -1
1366 c0 751 4 1373 8 1381 5 8 27 25 49 36 50 27 79 44 85 51 3 3 16 11 30 17
14 7 48 26 75 43 28 17 58 33 68 37 9 3 17 9 17 14 0 5 3 8 8 7 12 -3 62 24
62 34 0 4 6 8 13 8 7 0 29 11 50 25 20 14 37 22 37 18 0 -4 4 -3 8 3 6 9 166
104 264 157 13 7 42 25 65 40 24 15 45 27 47 27 7 0 130 72 136 79 3 3 21 14
40 23 52 26 113 61 128 75 7 7 20 13 28 13 8 0 14 5 14 12 0 6 3 9 6 5 3 -3
30 10 60 29 30 19 54 31 54 27 0 -4 4 -3 8 3 10 14 127 84 141 84 6 0 11 5 11
10 0 6 4 10 9 10 11 0 204 112 212 123 3 5 9 7 12 5 4 -1 15 5 27 14 11 10 20
15 20 12 0 -3 12 3 28 13 15 10 44 28 65 38 20 11 37 23 37 26 0 4 14 10 30
14 17 4 30 10 30 15 0 4 8 11 18 14 23 9 76 37 82 45 6 7 29 20 110 64 30 16
62 36 71 43 8 8 21 14 27 14 6 0 17 6 24 13 7 7 25 18 41 24 l27 13 0 1360 c0
748 -3 1360 -8 1360 -4 0 -42 -20 -84 -45z"/>
</g>
</svg>
